<?xml version="1.0" encoding="UTF-8" standalone="no"?>
<!-- Created with Inkscape (http://www.inkscape.org/) -->

<svg
   version="1.1"
   id="svg1"
   width="128"
   height="128"
   viewBox="0 0 128 128"
   sodipodi:docname="favicon.svg"
   inkscape:version="1.4.4 (dcaf3e7d9e, 2026-05-05)"
   xmlns:inkscape="http://www.inkscape.org/namespaces/inkscape"
   xmlns:sodipodi="http://sodipodi.sourceforge.net/DTD/sodipodi-0.dtd"
   xmlns="http://www.w3.org/2000/svg"
   xmlns:svg="http://www.w3.org/2000/svg">
  <defs
     id="defs1" />
  <sodipodi:namedview
     id="namedview1"
     pagecolor="#505050"
     bordercolor="#eeeeee"
     borderopacity="1"
     inkscape:showpageshadow="0"
     inkscape:pageopacity="0"
     inkscape:pagecheckerboard="0"
     inkscape:deskcolor="#505050"
     inkscape:zoom="2.8284271"
     inkscape:cx="29.698485"
     inkscape:cy="75.660426"
     inkscape:window-width="1920"
     inkscape:window-height="1012"
     inkscape:window-x="0"
     inkscape:window-y="36"
     inkscape:window-maximized="1"
     inkscape:current-layer="g1" />
  <g
     inkscape:groupmode="layer"
     inkscape:label="Image"
     id="g1">
    <circle
       style="fill:#ffffff;fill-opacity:1;stroke:none;stroke-width:1"
       id="path14"
       cx="64"
       cy="64"
       r="60.994797" />
    <g
       id="g13"
       transform="matrix(0.20116155,0,0,0.20116155,-62.74948,-29.468987)"
       style="stroke-width:4.97113">
      <path
         style="fill:#041029;fill-opacity:1;stroke:none;stroke-width:4.97113"
         d="m 813.66877,549.45586 c 0,0 -39.36669,7.58907 -43.57815,64.30348 -5.03297,67.77754 42.45068,65.96442 42.45068,65.96442 -7.54891,5.29745 -12.30832,6.80969 -22.52536,8.96627 l -313.48753,0.0317 c 0,0 -22.63198,-3.16032 -41.11903,-19.7496 -16.71106,-14.99559 -21.16896,-45.64903 -21.16896,-45.64903 l 1.29773,-327.51703 c 0,0 2.3172,-14.72747 19.29085,-35.1784 13.89488,-16.74144 40.0153,-20.05663 40.0153,-20.05663 l 245.60912,0.92882 c 0,0 32.66724,2.10522 49.33179,24.56588 17.60546,23.72882 14.27468,53.22617 14.27468,53.22617 l -0.41175,152.81072 c 0,0 -5.16738,18.35308 -8.57088,26.46013 -5.06606,12.06723 -16.83782,34.06271 -16.83782,34.06271 l -0.0922,-229.45783 c 0,0 -6.52691,-17.18606 -16.90797,-24.53752 -10.42606,-7.38332 -29.85223,-10.572 -29.85223,-10.572 l -228.35575,0.85243 c 0,0 -17.20536,-1.26522 -31.97144,15.44147 -11.45649,12.96214 -9.59318,39.97802 -9.59318,39.97802 l 0.62977,290.95235 c 0,0 1.04222,21.2012 16.46146,36.7621 12.11509,12.2264 34.86455,12.98948 34.86455,12.98948 86.50131,0.49387 165.68182,-0.39273 252.18286,0.1466 0,0 9.81152,0.28311 9.84176,-5.02409 0.0432,-7.58223 -11.48673,-6.65835 -11.48673,-6.65835 l -34.67175,-0.33518 c 0,0 -15.03632,-29.87016 0.28524,-64.21711 21.19,-47.50248 56.43833,-42.88156 104.09496,-39.48993 z"
         id="path13"
         sodipodi:nodetypes="cscccsccsccsccsccsccsccsccsccsc" />
      <path
         id="path1"
         style="fill:#005bf7;fill-opacity:1;stroke-width:4.97113"
         d="m 494.14844,337.71289 c -5.46271,0 -9.85938,4.39667 -9.85938,9.85938 v 105.60351 c 0,5.46271 4.39667,9.86133 9.85938,9.86133 H 603.8457 c 5.46271,0 9.85938,-4.39862 9.85938,-9.86133 V 347.57227 c 0,-5.46271 -4.39667,-9.85938 -9.85938,-9.85938 z m 11.32422,12.9375 h 87.04882 c 4.33486,0 7.82422,3.48936 7.82422,7.82422 v 83.79883 c 0,4.33485 -3.48936,7.82617 -7.82422,7.82617 h -87.04882 c -4.33486,0 -7.82422,-3.49132 -7.82422,-7.82617 v -83.79883 c 0,-4.33486 3.48936,-7.82422 7.82422,-7.82422 z m 71.2539,21.73633 c -1.95556,-0.001 -3.81064,0.60321 -5.16797,1.89844 l -31.17187,36.29296 -12.91406,-13.58203 c -8.63574,-5.0165 -18.68682,5.63568 -12.69141,13.35938 l 18.03516,18.92578 c 6.3389,5.6399 11.09382,5.26847 16.03125,-0.66797 l 37.40625,-42.08203 c 3.10447,-8.67708 -3.66065,-14.14047 -9.52735,-14.14453 z" />
      <rect
         style="fill:#041029;fill-opacity:1;stroke-width:5.02248"
         id="rect2"
         width="205.00815"
         height="15.585938"
         x="487.23013"
         y="495.85547"
         ry="26.56447"
         rx="22.690483" />
      <rect
         style="fill:#041029;fill-opacity:1;stroke-width:5.02248"
         id="rect3"
         width="205.00815"
         height="15.585938"
         x="487.23013"
         y="538.67963"
         ry="26.56447"
         rx="22.690483" />
      <rect
         style="fill:#041029;fill-opacity:1;stroke-width:4.97113"
         id="rect4"
         width="7.1118774"
         height="46.936768"
         x="487.04602"
         y="585.05353"
         rx="10.759198"
         ry="11.345242" />
      <rect
         style="fill:#041029;fill-opacity:1;stroke-width:4.97113"
         id="rect5"
         width="7.1118774"
         height="46.936768"
         x="536.69836"
         y="585.05353"
         rx="10.759198"
         ry="11.345242" />
      <rect
         style="fill:#041029;fill-opacity:1;stroke-width:4.97113"
         id="rect6"
         width="7.1118774"
         height="46.936768"
         x="591.91711"
         y="585.05353"
         rx="10.759198"
         ry="11.345242" />
      <rect
         style="fill:#041029;fill-opacity:1;stroke-width:4.97113"
         id="rect7"
         width="7.1118774"
         height="46.936768"
         x="613.06946"
         y="585.05353"
         rx="10.759198"
         ry="11.345242" />
      <rect
         style="fill:#041029;fill-opacity:1;stroke-width:4.97113"
         id="rect8"
         width="7.1118774"
         height="46.936768"
         x="630.21399"
         y="585.05353"
         rx="10.759198"
         ry="11.345242" />
      <rect
         style="fill:#041029;fill-opacity:1;stroke-width:4.97113"
         id="rect9"
         width="21.80719"
         height="46.936768"
         x="556.06946"
         y="585.05353"
         rx="10.759198"
         ry="11.345242" />
      <rect
         style="fill:#041029;fill-opacity:1;stroke-width:4.97113"
         id="rect10"
         width="18.912659"
         height="46.936768"
         x="504.41321"
         y="585.05353"
         rx="10.759198"
         ry="11.345242" />
      <path
         style="fill:#005bf7;fill-opacity:1;stroke-width:4.97113"
         d="m 636.06465,300.87117 1.10209,101.39248 c 3.17887,16.10011 14.08605,26.21503 38.10091,25.03324 0,0 47.65694,-2.28609 65.81065,5.03814 10.53159,4.24904 17.31859,18.42068 17.31859,18.42068 l -0.15744,-7.87209 c -8.86863,-44.16435 -77.20884,-99.15266 -122.1748,-142.01245 z"
         id="path10"
         sodipodi:nodetypes="cccsccc" />
      <g
         id="g12"
         style="stroke-width:4.97113">
        <path
           style="fill:#005bf7;fill-opacity:1;stroke-width:4.97113"
           d="m 827.51381,599.85305 c 0,0 -13.3987,-21.7424 -23.93115,1.88929 -6.96931,15.63708 1.57443,28.02463 1.57443,28.02463 l -9.60395,20.30999 c 0,0 -10.33871,-6.97595 -10.4034,-33.07753 -0.0515,-20.77795 7.25456,-31.47358 7.25456,-31.47358 0,0 9.28885,-18.69475 22.87185,-19.24639 18.25308,-0.74129 23.41602,14.68058 23.41602,14.68058 z"
           id="path11"
           sodipodi:nodetypes="csccscscc" />
        <path
           style="fill:#040f27;fill-opacity:1;stroke-width:4.97113"
           d="m 805.1374,629.72762 c 0,0 11.93939,13.4612 20.64455,-4.99877 4.88712,-10.36351 1.57442,-25.19069 1.57442,-25.19069 l 11.3358,-18.57812 c 0,0 7.86535,8.68183 7.20393,36.06233 -0.54549,22.58171 -11.92718,32.73971 -11.92718,32.73971 0,0 -5.56416,7.93292 -19.3702,9.20464 -14.22339,1.31016 -19.36047,-8.73232 -19.36047,-8.73232 z"
           id="path12"
           sodipodi:nodetypes="csccscscc" />
      </g>
    </g>
  </g>
</svg>
